# xmcd
#
# Track frame offsets:
#	150
#	18767
#	40266
#	59438
#	71901
#	91294
#	107836
#	121809
#	137683
#	148257
#	162295
#	179480
#	184648
#	189867
#	194804
#	200141
#	204349
#	209775
#	223570
#	237975
#	248603
#	263416
#	280743
#	286049
#	291490
#
# Disc length: 3927 seconds
#
# Revision: 0
# Processed by: cddbd v1.5.2PL0 Copyright (c) Steve Scherf et al.
# Submitted via: EasyCDDAExtractor 16.0.6.1
#
DISCID=890f5519
DTITLE=Συλλογικός δίσκος - Τα ωραιότερα ελλ. ελαφρά τραγούδια 05
DYEAR=2010
DGENRE=Ελαφρά
TTITLE0=Λήδα - Άσ' τα τα μαλλάκια σου[Μ.Σουγιούλ-Α.Σακελλάριος/Χ.Γιαννακόπουλο
TTITLE0=ς]
TTITLE1=Πετρόπουλος Γιάννης - Δυό πράσινα μάτια [Μ. Κατριβάνος-Κ. Κιούσης]
TTITLE2=Κυριαζοπούλου Ζωζώ - Κάποιο μυστικό [Κ.Γιαννίδης-Π.Παπαδούκας/Β.Σπυρόπ
TTITLE2=ουλος]
TTITLE3=Χρυσός Τέρης - Νύχτα μου όμορφη [Γ. Μουζάκης-Α. Σακελλάριος]
TTITLE4=Ζορμπαλά Μαργαρίτα - Παπαρούνα [Αττίκ]
TTITLE5=Μαστέλος-Δημητσάνος - Κουμπατσέρο [Marin and Rafael Hernadez, απ. Κ. Κιο
TTITLE5=ύσης]
TTITLE6=Ζήλια Άντζελα - Πού να είσαι αγάπη μου [Γ. Μουζάκης]
TTITLE7=Πετρόπουλος Γιάννης - Αλίμονο σε σένα [Γ.Μουζάκης-Γ.Οικονομίδης/Κ.Πρετ
TTITLE7=εντέρης]
TTITLE8=Προέδρου Βέττα-Χαιρόπουλος Χρήστος - Μη σε νοιάζει [Χ. Χαιρόπουλος-Κ. 
TTITLE8=Κιούσης]
TTITLE9=Κούρτης Κώστας - Οι γάμπες της Ντολόρες [Bruno Balz-Michael Jarry-K. A
TTITLE9=sim]
TTITLE10=Σακελλαρίου Λίτσα - Χρόνια σε περίμενα, χρόνια σ' αγαπούσα[Γ Μουζάκης
TTITLE10=Α.Σακελλάριος/Χ.Γιανλος]
TTITLE11=Παρούσης Σταύρος - Σαν το κρασί [Τ. Οικονομίδης-Κ. Ζαχαρόπουλος]
TTITLE12=Παρούσης Σταύρος - Εγώ το πίνω και το λέω [Ερμής Πόγγης-Τίμος Μωραϊτί
TTITLE12=νης]
TTITLE13=Παρούσης Σταύρος - Μπαρμπα Γιάννης κανατάς [παρ., διασκ. Γ. Θανόπουλο
TTITLE13=ς]
TTITLE14=Κορώνη Γεωργία - Το τελευταίο τανγκό [Κ.Κιούσης-Θ.Παπαδόπουλος-Δ.Ρηγό
TTITLE14=πουλος]
TTITLE15=Κορώνη Γεωργία - Σκότωσέ με [Θόδ. Παπαδόπουλος]
TTITLE16=Κορώνη Γεωργία - Σκληρή καρδιά [Θ. Παπαδόπουλος-Κίτσα Κορίνα]
TTITLE17=Προέδρου Βέττα - Όνειρο φτωχό μου [Χρ. Χαιρόπουλος]
TTITLE18=Ζορμπαλά Μαργαρίτα - Κλαίς [Λεό Ραπίτης-Κ. Κοφινιώτης]
TTITLE19=Γιοβάννα - Θά 'θελα απόψε [Γ. Θεοδοσιάδης-Άντζελα Ζήλια]
TTITLE20=Δανάη - Μπορεί και να μη σ' αγαπώ [Χρ. Χαιρόπουλος]
TTITLE21=Ζήλια Άντζελα - Πρίμο σεκόντο [Μ.Θεοφανίδης-Α.Γιαλαμάς/Γ.Θίσβιος/Κ.Πρ
TTITLE21=ετεντέρης]
TTITLE22=Κορώνη Γεωργία - Κάποτε κλάψαμε κι οι δυό [Γ. Βέλλας-Κ. Κοφινιώτης]
TTITLE23=Κορώνη Γεωργία - Ίσως μιά μέρα να με θυμηθείς [Τάσος Βάμπαρης]
TTITLE24=Κορώνη Γεωργία - Κάτι με τραβά κοντά σου [Μ. Σουγιούλ-Μ. Γαϊτάνος]
EXTD=
EXTT0=
EXTT1=
EXTT2=
EXTT3=
EXTT4=
EXTT5=
EXTT6=
EXTT7=
EXTT8=
EXTT9=
EXTT10=
EXTT11=
EXTT12=
EXTT13=
EXTT14=
EXTT15=
EXTT16=
EXTT17=
EXTT18=
EXTT19=
EXTT20=
EXTT21=
EXTT22=
EXTT23=
EXTT24=
PLAYORDER=
